<svg xmlns="http://www.w3.org/2000/svg" viewBox="0 0 64 64" width="64" height="64" aria-label="Logo">
  <!-- Marca simbólica: escudo estilizado.
       Esta es una representación simplificada. Para uso oficial
       debe sustituirse por el SVG facilitado en el manual de identidad. -->
  <g fill="currentColor">
    <!-- Corona -->
    <path d="M14 14 L18 6 L22 12 L26 4 L30 12 L34 4 L38 12 L42 4 L46 12 L50 6 L50 14 Z"/>
    <!-- Cuerpo del escudo -->
    <path d="M14 16 L50 16 L50 50 Q50 58 32 62 Q14 58 14 50 Z"/>
  </g>
  <g fill="#ffffff">
    <!-- Barco simplificado -->
    <path d="M22 32 L32 20 L32 40 Z"/>
    <path d="M34 22 L42 32 L42 40 L34 40 Z"/>
    <!-- Olas -->
    <path d="M18 46 Q22 42 26 46 Q30 50 34 46 Q38 42 42 46 Q46 50 48 46 L48 50 L18 50 Z" opacity="0.9"/>
  </g>
</svg>
